<svg xmlns="http://www.w3.org/2000/svg" viewBox="0 0 40 40"><defs><style>.cls-1{fill:#fff;}</style></defs><title>facebook</title><g id="Layer_2" data-name="Layer 2"><g id="Layer_1-2" data-name="Layer 1"><g id="Page-1"><g id="Facebook"><path id="Oval-1" class="cls-1" d="M22.75,14.4H24.8V11.2H22.06c-3.3,0-4.46,1.56-4.46,4.17V16.8H16V20h1.6v8.8h4V20h2.75l.36-3.2H21.6V15.45C21.46,14.66,22.75,14.4,22.75,14.4Zm-5.15,1V16.8H16V20h1.6v8.8h4V20h2.75l.36-3.2H21.6V15.45c-.14-.79,1.15-1,1.15-1H24.8V11.2H22.06C18.76,11.2,17.6,12.76,17.6,15.37ZM20,0A20,20,0,1,0,40,20,20,20,0,0,0,20,0Zm0,37.6A17.6,17.6,0,1,1,37.6,20,17.6,17.6,0,0,1,20,37.6Zm2.75-23.2H24.8V11.2H22.06c-3.3,0-4.46,1.56-4.46,4.17V16.8H16V20h1.6v8.8h4V20h2.75l.36-3.2H21.6V15.45C21.46,14.66,22.75,14.4,22.75,14.4Zm0,0H24.8V11.2H22.06c-3.3,0-4.46,1.56-4.46,4.17V16.8H16V20h1.6v8.8h4V20h2.75l.36-3.2H21.6V15.45C21.46,14.66,22.75,14.4,22.75,14.4Zm0,0H24.8V11.2H22.06c-3.3,0-4.46,1.56-4.46,4.17V16.8H16V20h1.6v8.8h4V20h2.75l.36-3.2H21.6V15.45C21.46,14.66,22.75,14.4,22.75,14.4Z"/></g></g></g></g></svg>