<svg xmlns="http://www.w3.org/2000/svg" viewBox="0 0 40.8 40.8"><defs><style>.cls-1{fill:#fff;stroke:#fff;stroke-miterlimit:10;stroke-width:0.8px;}</style></defs><title>instagram</title><g id="Layer_2" data-name="Layer 2"><g id="Layer_1-2" data-name="Layer 1"><path class="cls-1" d="M20.4.4a20,20,0,1,0,20,20A20,20,0,0,0,20.4.4Zm0,37.6A17.6,17.6,0,1,1,38,20.4,17.6,17.6,0,0,1,20.4,38Z"/><path class="cls-1" d="M29.18,12.46a1.94,1.94,0,0,0-1.6-1.59H13.36l-.25,0a2,2,0,0,0-1.47,1.68.29.29,0,0,1,0,.09V27.44a2.33,2.33,0,0,1,.05.28,2,2,0,0,0,1.6,1.52l.11,0H27.46l.28-.05a1.93,1.93,0,0,0,1.44-1.55,2,2,0,0,0,0-.24V12.7A2,2,0,0,0,29.18,12.46ZM20.4,16.67a3.73,3.73,0,1,1-3.56,3.67A3.65,3.65,0,0,1,20.4,16.67Zm6.42,2v8.23a.72.72,0,0,1-.68.72H13.91a.72.72,0,0,1-.69-.72V18.86h2s-.32,2.86.43,4.29a5.35,5.35,0,0,0,2.13,2.24,5.27,5.27,0,0,0,5.73-.25,5.78,5.78,0,0,0,2.36-4.06,10,10,0,0,0-.21-3h1.2Zm.8-3.79a.72.72,0,0,1-.67.73H25.3a.69.69,0,0,1-.69-.49.82.82,0,0,1,0-.26c0-.57,0-1.14,0-1.71a.72.72,0,0,1,.71-.74h1.65a.71.71,0,0,1,.7.74Z"/></g></g></svg>