<svg xmlns="http://www.w3.org/2000/svg" viewBox="0 0 89.94 46.74"><defs><style>.cls-1{fill:none;stroke:#fff;stroke-miterlimit:10;stroke-width:2.8px;}.cls-2{fill:#fff;}</style></defs><title>Asset 3</title><g id="Layer_2" data-name="Layer 2"><g id="Layer_1-2" data-name="Layer 1"><path class="cls-1" d="M76.12,11.33c-11.34,2.74-9.51,9.36-20.84,12.11s-13.17-3.87-24.51-1.13S21.25,31.68,9.91,34.43"/><path class="cls-2" d="M20.32,45.52A19.84,19.84,0,0,1,12.2,44a16.86,16.86,0,0,1-6.93-5.42,25.39,25.39,0,0,1-4.18-8.33,25.77,25.77,0,0,1-.7-11.86A21.35,21.35,0,0,1,5.54,7.78,24.09,24.09,0,0,1,17,.83,21.31,21.31,0,0,1,20.91.08a14.11,14.11,0,0,1,4.25.19A8.88,8.88,0,0,1,28.9,2a7.31,7.31,0,0,1,2.43,3.84,7.81,7.81,0,0,1,.16,3.7A7.7,7.7,0,0,1,29.82,13a7.37,7.37,0,0,1-3.69,2.29,8.41,8.41,0,0,1-2.16.33,5.37,5.37,0,0,1-2.13-.37,10.81,10.81,0,0,0,.46-3.64A15.27,15.27,0,0,0,21.77,8a12.88,12.88,0,0,0-1.06-2.57,3.64,3.64,0,0,0-1.64-1.61,3.59,3.59,0,0,0-2.58,0,7.09,7.09,0,0,0-3.87,2.64,12,12,0,0,0-2,4.44,22.18,22.18,0,0,0-.56,5.25,33.59,33.59,0,0,0,.4,5.14c.26,1.62.55,3,.85,4.12A41.06,41.06,0,0,0,14,32a19.7,19.7,0,0,0,3.87,5.21,11.85,11.85,0,0,0,5.15,2.93,11.88,11.88,0,0,0,6.56-.28,18.39,18.39,0,0,0,6.56-3.31,17.9,17.9,0,0,0,4.22-5,30.42,30.42,0,0,0,2.66-6.3c.18-.6.33-1.12.45-1.55a1.9,1.9,0,0,1,1.37-1.42c.69-.21,1.1-.07,1.24.39a1.73,1.73,0,0,1-.12.88q-.26.93-.51,1.89a37.45,37.45,0,0,1-3.22,7.78,25,25,0,0,1-5.35,6.61,21.49,21.49,0,0,1-8.14,4.32A32.59,32.59,0,0,1,20.32,45.52Z"/><path class="cls-2" d="M69.62,1.22a19.68,19.68,0,0,1,8.12,1.49,16.84,16.84,0,0,1,6.93,5.41,25.44,25.44,0,0,1,4.18,8.34,25.62,25.62,0,0,1,.7,11.86A21.39,21.39,0,0,1,84.4,39a24.12,24.12,0,0,1-11.48,6.95,21.31,21.31,0,0,1-3.89.75,14.11,14.11,0,0,1-4.25-.2A9,9,0,0,1,61,44.79,7.45,7.45,0,0,1,58.61,41a7.85,7.85,0,0,1-.16-3.71,7.71,7.71,0,0,1,1.67-3.51,7.37,7.37,0,0,1,3.69-2.29A7.62,7.62,0,0,1,66,31.11a5.2,5.2,0,0,1,2.13.37,10.78,10.78,0,0,0-.46,3.64,15.18,15.18,0,0,0,.53,3.61,12.64,12.64,0,0,0,1.06,2.57,3.69,3.69,0,0,0,1.64,1.61,3.54,3.54,0,0,0,2.58,0,7.09,7.09,0,0,0,3.87-2.64,11.81,11.81,0,0,0,2-4.43,22.18,22.18,0,0,0,.56-5.25,33.49,33.49,0,0,0-.4-5.14,39.86,39.86,0,0,0-.85-4.13,42.35,42.35,0,0,0-2.68-6.65A20.12,20.12,0,0,0,72,9.48,11.3,11.3,0,0,0,60.32,6.83a18.55,18.55,0,0,0-6.56,3.31,17.94,17.94,0,0,0-4.22,5,30.2,30.2,0,0,0-2.66,6.3c-.18.6-.33,1.12-.45,1.54a1.93,1.93,0,0,1-1.37,1.43c-.69.2-1.1.07-1.24-.39a1.77,1.77,0,0,1,.12-.89q.26-.93.51-1.89a37.59,37.59,0,0,1,3.22-7.77A24.65,24.65,0,0,1,53,6.87a21.49,21.49,0,0,1,8.14-4.32A31.77,31.77,0,0,1,69.62,1.22Z"/></g></g></svg>