<svg xmlns="http://www.w3.org/2000/svg" xmlns:xlink="http://www.w3.org/1999/xlink" viewBox="0 0 360.25 317.36"><defs><style>.cls-1{fill:none;}.cls-2{clip-path:url(#clip-path);}.cls-3,.cls-5{fill:#fff;}.cls-13,.cls-4{fill:#534741;}.cls-5{font-size:9.82px;font-family:Raleway-Regular, Raleway;}.cls-6{letter-spacing:-0.03em;}.cls-7{letter-spacing:-0.01em;}.cls-8{letter-spacing:-0.03em;}.cls-9{letter-spacing:-0.01em;}.cls-10{letter-spacing:0em;}.cls-11{letter-spacing:-0.02em;}.cls-12{letter-spacing:-0.01em;}.cls-13{stroke:#fff;stroke-miterlimit:10;stroke-width:0.81px;}</style><clipPath id="clip-path"><circle class="cls-1" cx="150.83" cy="159.33" r="150.5"/></clipPath></defs><title>map</title><g id="Layer_2" data-name="Layer 2"><g id="Layer_1-2" data-name="Layer 1"><g class="cls-2"><rect class="cls-3" y="7.85" width="314.09" height="302.31"/><rect class="cls-4" x="87.03" width="17.67" height="317.36"/><rect class="cls-4" x="221.66" y="-22.69" width="17.67" height="349.33" transform="translate(-39.95 207.5) rotate(-45)"/><rect class="cls-4" x="137.41" y="137.41" width="17.67" height="124.33"/><rect class="cls-4" x="151.81" y="107.97" width="17.67" height="317.36" transform="translate(427.29 106) rotate(90)"/><rect class="cls-4" x="151.81" y="-127.6" width="17.67" height="317.36" transform="translate(191.72 -129.56) rotate(90)"/><rect class="cls-4" x="149.85" y="-16.36" width="17.67" height="317.36" transform="translate(301 -16.36) rotate(90)"/><rect class="cls-4" x="221.17" width="17.67" height="317.36"/></g><text class="cls-5" transform="translate(116.47 145.92)">Ange<tspan class="cls-6" x="24.18" y="0">l</tspan><tspan x="26.55" y="0" xml:space="preserve"> Kanch</tspan><tspan class="cls-7" x="57.55" y="0">e</tspan><tspan class="cls-8" x="63.17" y="0">v</tspan></text><text class="cls-5" transform="translate(108.62 35.99)">G.<tspan class="cls-9" x="8.88" y="0">R</tspan><tspan class="cls-10" x="15.22" y="0">a</tspan><tspan class="cls-8" x="20.57" y="0">k</tspan><tspan class="cls-11" x="25.51" y="0">o</tspan><tspan class="cls-12" x="31.16" y="0">v</tspan><tspan class="cls-10" x="36.27" y="0">ski</tspan></text><text class="cls-5" transform="translate(232.54 205.4) rotate(-90)">Vi<tspan class="cls-12" x="8.8" y="0">t</tspan><tspan x="11.96" y="0">osh</tspan><tspan class="cls-9" x="28.31" y="0">k</tspan><tspan class="cls-10" x="33.44" y="0">a</tspan></text><text class="cls-5" transform="translate(133.49 271.55)">Soluns<tspan class="cls-9" x="30.8" y="0">k</tspan><tspan class="cls-10" x="35.93" y="0">a</tspan></text><path class="cls-13" d="M165.79,118.2c0,3.35-6.07,12.63-6.07,12.63s-6.06-9.28-6.06-12.63a6.07,6.07,0,0,1,12.13,0Z"/><circle class="cls-3" cx="159.85" cy="118.33" r="2.27"/></g></g></svg>