<svg xmlns="http://www.w3.org/2000/svg" viewBox="0 0 1144 862.5"><defs><style>.cls-1{fill:#ffcb33;}.cls-2,.cls-5{opacity:0.25;}.cls-3,.cls-5,.cls-6{fill:#fff;}.cls-4{fill:none;stroke:#fff;stroke-miterlimit:10;stroke-width:3px;}.cls-6{opacity:0.15;}</style></defs><title>menu</title><g id="Layer_2" data-name="Layer 2"><g id="Layer_1-2" data-name="Layer 1"><rect class="cls-1" width="1144" height="862.5"/><g class="cls-2"><path class="cls-3" d="M155.44,503,82.5,551.49a1.14,1.14,0,0,0-.33,1.57l8.28,12.46a1.14,1.14,0,0,0,1.58.31l3-2,56.3,73.76a1.13,1.13,0,0,0,1.54.25l3.69-2.46,3.07,4.61a1.13,1.13,0,0,0,1.57.3l45.75-30.41a1.14,1.14,0,0,0,.33-1.57l-3.06-4.61,3.73-2.48a1.14,1.14,0,0,0,.37-1.51l-46.23-80.47,2.94-2a1.14,1.14,0,0,0,.33-1.57l-8.28-12.46A1.22,1.22,0,0,0,155.44,503Zm35.92,71.77-56.54,37.59L105.5,574l61.8-41.09Zm13.31,33.88L160.9,637.74l-2.54-3.82,43.77-29.1,2.54,3.83Zm1.06-8.7L202,602.46h0l-45.64,30.34h0l-3.77,2.51-16.2-21.2,56.12-37.32ZM166.2,531.13l-61.89,41.14-7.4-9.69,63.24-42ZM162.77,516,159.85,518,94.67,561.32l-2.92,1.94-7-10.52,71-47.2,7,10.52Z"/><path class="cls-3" d="M138.48,556.56A20.39,20.39,0,1,0,167,562.05,20.56,20.56,0,0,0,138.48,556.56Zm21.32,32.05a18.14,18.14,0,1,1,5.32-25.31A18.32,18.32,0,0,1,159.8,588.61Z"/></g><g class="cls-2"><path class="cls-4" d="M953.39,152.39H900.61a3.12,3.12,0,0,0-3.11,3.11v6.73c.1,1.89.77,6.16,4.8,6.16h8.2v5.09a1.92,1.92,0,0,0,1.92,1.91h5.13a1.91,1.91,0,0,0,2-1.89v-5.11h13s5-.29,5,5.43v25.12a4.11,4.11,0,0,1-4.18,4.45H924.6a17.48,17.48,0,0,0,1.67-4.89,2.55,2.55,0,0,0,.84.15,2.69,2.69,0,0,0,2-.89c.13-.17.24-.34.36-.5a16.12,16.12,0,0,0,2.93-5.82.51.51,0,0,0,0-.09s0-.08,0-.12a1.79,1.79,0,0,1,0-.23,1.09,1.09,0,0,0,0-.12,2.35,2.35,0,0,0,0-.27,3.87,3.87,0,0,0-2-3.44,4.11,4.11,0,0,0-4,0v-1.24a2.52,2.52,0,0,0-2.52-2.52H906.85a15.82,15.82,0,0,0-3.35,3.07v9.92c.88.41,1,1.7,1,1.7v-.47a19.05,19.05,0,0,0,1.68,5.78h-3.13a8.13,8.13,0,0,0-3.25.53,4.1,4.1,0,0,0-2.15,2.94c0,.16-.06.33-.08.5s0,.25,0,.38,0,.25,0,.39v3.31s.09,4.95,4.49,4.95h49.2c4.94,0,5.29-4.76,5.31-5.82V155.51A3.13,3.13,0,0,0,953.39,152.39Zm-26.89,41c0-.68,0-1.27,0-1.68s0-.7,0-.7a2.26,2.26,0,0,1,.4-.86,2.1,2.1,0,0,1,2.73-.48,2,2,0,0,1,.94,1.79.17.17,0,0,1,0,.07v.07s0,.08,0,.12v.05s0,0,0,0a8.41,8.41,0,0,1-1.5,3l-.18.25a1.37,1.37,0,0,1-2.39-.9v-.76Z"/></g><g class="cls-2"><path class="cls-4" d="M516.39,741.39H463.61a3.12,3.12,0,0,0-3.11,3.11v6.73c.1,1.89.77,6.16,4.8,6.16h8.2v5.09a1.92,1.92,0,0,0,1.92,1.91h5.13a1.91,1.91,0,0,0,1.95-1.89v-5.11h13s5-.29,5,5.43v25.12a4.11,4.11,0,0,1-4.18,4.45H487.6a17.48,17.48,0,0,0,1.67-4.89,2.55,2.55,0,0,0,.84.15,2.69,2.69,0,0,0,2-.89c.13-.17.24-.34.36-.5a16.12,16.12,0,0,0,2.93-5.82.51.51,0,0,0,0-.09s0-.08,0-.12a1.79,1.79,0,0,1,0-.23,1.09,1.09,0,0,0,0-.12,2.35,2.35,0,0,0,0-.27,3.87,3.87,0,0,0-2-3.44,4.11,4.11,0,0,0-4,0v-1.24a2.52,2.52,0,0,0-2.52-2.52H469.85a15.82,15.82,0,0,0-3.35,3.07v9.92c.88.41,1,1.7,1,1.7v-.47a19.05,19.05,0,0,0,1.68,5.78h-3.13a8.13,8.13,0,0,0-3.25.53,4.1,4.1,0,0,0-2.15,2.94c0,.16-.06.33-.08.5s0,.25,0,.38,0,.25,0,.39v3.31s.09,4.95,4.49,4.95h49.2c4.94,0,5.29-4.76,5.31-5.82V744.51A3.13,3.13,0,0,0,516.39,741.39Zm-26.89,41c0-.68,0-1.27,0-1.68s0-.7,0-.7a2.26,2.26,0,0,1,.4-.86,2.1,2.1,0,0,1,2.73-.48,2,2,0,0,1,.94,1.79.17.17,0,0,1,0,.07v.07s0,.08,0,.12v0s0,0,0,.05a8.41,8.41,0,0,1-1.5,3l-.18.25a1.37,1.37,0,0,1-2.39-.9v-.76Z"/></g><g class="cls-2"><path class="cls-3" d="M223.32,338.66l-3.79-.49c1-3.37,1.74-6.31,2.26-8.58a4.62,4.62,0,0,0-3.95-5.64l-68.24-8.71a4.69,4.69,0,0,0-5.24,4.47c-.43,15.3.88,60.36,31.16,64.22,16.54,2.11,27.75-9.83,35.16-23.54l5.12.66s5.74.73,7.33-2.57l5.91-9.75C229.66,343.9,227.8,339.23,223.32,338.66Zm-30.88,36.63a23.46,23.46,0,0,1-31.14-4c-3.5-4.07-6.36-9.63-8.45-16.55-3.83-13-4.08-27.49-3.84-34.93l68.25,8.7h0c-1.7,7.32-5.52,21.25-12.49,32.91C201,367.57,196.86,372.23,192.44,375.29Zm26.73-19.18a.23.23,0,0,1-.07.1,6.45,6.45,0,0,1-2.72.24l-2-.26,5.55-13.3,2.82.36c1.43.18,1.81,2.27,1.76,4Z"/><path class="cls-3" d="M177.86,308.17a.94.94,0,0,0,0,.44c0,.31,0,.62,0,.93,0,.57.11,1.07.17,1.58a16.06,16.06,0,0,0,.59,2.24c.09.26.19.46.23.59a1,1,0,0,0,.1.2.6.6,0,0,0,1.15-.29l0-.2a2.2,2.2,0,0,0,.11-.74c0-.47,0-1.17,0-2a12.57,12.57,0,0,0-.14-1.31l.08-.63,0-.4,0-.11v-.18a2.29,2.29,0,0,1,.53-.92c.27-.32.66-.62,1.13-1.14a7.25,7.25,0,0,0,.7-.9c.08-.17.16-.33.25-.56a2.18,2.18,0,0,0,.19-.56,1.86,1.86,0,0,1,.09-.28l0-.13,0-.24v-.06h0v-.06l0-.11a4.51,4.51,0,0,0,0-.9,23.08,23.08,0,0,0-.26-3.09c-.12-.91-.34-1.6-.45-2.15s-.19-.81-.19-.81h0a.65.65,0,0,0-.55-.42.63.63,0,0,0-.61.58s0,.3,0,.78,0,1.25,0,2.09,0,1.85-.12,2.86l-.08.63-.25.82a2.1,2.1,0,0,0-.13.26,2.28,2.28,0,0,1-.36.49c-.34.32-.81.74-1.3,1.27a4.27,4.27,0,0,0-.93,2.1v0l0,.18Z"/><path class="cls-3" d="M182.51,308.83h0a.9.9,0,0,0,0,.43c0,.3,0,.6,0,.91,0,.55.11,1,.17,1.54a15.68,15.68,0,0,0,.57,2.2c.09.26.19.45.23.58a.49.49,0,0,0,.1.19.6.6,0,0,0,.56.38.63.63,0,0,0,.57-.66l0-.14a2.23,2.23,0,0,0,.11-.75c0-.46,0-1.17,0-2,0-.41-.14-1.3-.14-1.3l.08-.63.05-.4V309l0-.11a2.42,2.42,0,0,1,.52-.93c.28-.31.66-.61,1.14-1.14a7.46,7.46,0,0,0,.7-.9,5,5,0,0,0,.24-.55,2.06,2.06,0,0,0,.19-.56,2.68,2.68,0,0,1,.1-.28v-.14l0-.23v-.06h0v-.18a4.51,4.51,0,0,0,0-.9,24.33,24.33,0,0,0-.27-3.08c-.12-.92-.33-1.6-.44-2.16l-.2-.8h0a.65.65,0,0,0-.54-.43.64.64,0,0,0-.61.58s0,.3,0,.78,0,1.26,0,2.1-.06,1.84-.13,2.85l-.08.64-.25.82-.12.25a3.21,3.21,0,0,1-.37.5c-.34.31-.81.73-1.3,1.27a4.3,4.3,0,0,0-.92,2.1l0,.21Z"/><path class="cls-3" d="M187.1,309.41h0a1.19,1.19,0,0,0,0,.42c0,.31,0,.61,0,.92,0,.55.11,1,.16,1.54a19.67,19.67,0,0,0,.57,2.2c.09.25.19.45.24.58a.78.78,0,0,0,.09.19.62.62,0,0,0,.56.38.63.63,0,0,0,.57-.66l0-.15a2.13,2.13,0,0,0,.11-.74c0-.47,0-1.17,0-2,0-.41-.15-1.3-.15-1.3l.08-.64,0-.4,0-.11v-.17a2.32,2.32,0,0,1,.53-.93c.27-.32.66-.62,1.14-1.14a7.48,7.48,0,0,0,.69-.9c.08-.17.16-.33.25-.55a2.06,2.06,0,0,0,.19-.56,1.31,1.31,0,0,1,.09-.28l0-.14,0-.24v-.05h0v-.06l0-.12a3.87,3.87,0,0,0,0-.9,23.08,23.08,0,0,0-.26-3.09c-.12-.91-.34-1.6-.44-2.15l-.2-.8h0a.66.66,0,0,0-.55-.43.63.63,0,0,0-.61.58s0,.3,0,.78,0,1.25,0,2.09,0,1.85-.12,2.86l-.08.63a2.74,2.74,0,0,0-.25.83c0,.08-.09.16-.13.25a2.28,2.28,0,0,1-.36.49c-.34.32-.81.74-1.3,1.27a4.27,4.27,0,0,0-.93,2.1l0,.22Z"/><path class="cls-3" d="M202.09,350l-43.77-5.58a2.32,2.32,0,0,0-2.57,2.76l.89,4c3.79,14.67,10.34,22.39,20.05,23.63s18-4.6,25.33-17.84c.68-1.2,1.3-2.41,1.86-3.62A2.3,2.3,0,0,0,202.09,350Z"/></g><g class="cls-2"><path class="cls-4" d="M913.82,352a4.42,4.42,0,1,0-3.46-5.21A4.43,4.43,0,0,0,913.82,352Zm1.3-6.5a2.21,2.21,0,1,1-2.6,1.73A2.22,2.22,0,0,1,915.12,345.52Z"/><path class="cls-4" d="M952.92,353.69l-31.62-6.37a9.19,9.19,0,0,1-.12,1.67,6.34,6.34,0,0,1-1.14,2.59l32,6.44a2.21,2.21,0,1,0,.87-4.33Z"/><path class="cls-4" d="M957.8,343.4l-5.3-1.07a2.23,2.23,0,0,0-2.66,2.29l.21,4.55a2.14,2.14,0,0,0,1.79,2l3.14.64a2.25,2.25,0,0,0,2.44-1.2l2-4.12A2.22,2.22,0,0,0,957.8,343.4Z"/><path class="cls-4" d="M926.8,404a2.2,2.2,0,0,0,.38-4.15l0-.1s2-.74,2.16-1.77a2.22,2.22,0,0,0-1.73-2.6h0a2.21,2.21,0,1,0,.87-4.33l-2.87-.58,2.51-4.34a22.9,22.9,0,0,0,2.85-8l1.76-8.77a2.26,2.26,0,0,0,2.77-1.7,2.22,2.22,0,0,0-1.73-2.6l-.17,0h0l-19.49-3.93,1.38-6.87a7.67,7.67,0,0,1-2.24-.06,7.56,7.56,0,0,1-2.09-.81l-1.38,6.87-19.49-3.92h0a2.21,2.21,0,0,0-.88,4.33h0l-1.76,8.78a25.55,25.55,0,0,0-.31,8.5l.63,5-2.88-.58a2.27,2.27,0,0,0-2.55,1.26,2.21,2.21,0,0,0,1.59,3.05,2.21,2.21,0,0,0-2.6,1.73,2.19,2.19,0,0,0,1.25,2.45l0,.11a2.2,2.2,0,0,0-1.25,4l-9,28.21a11.35,11.35,0,0,0-.5,3.34V438.2a11.08,11.08,0,0,0,8.89,10.86l25.62,5.16a12,12,0,0,0,4.75-.06,8.53,8.53,0,0,0,1.76-.61,10.41,10.41,0,0,0,3.12-2,10.76,10.76,0,0,0,2.76-3.89l4.56-10.86a11.38,11.38,0,0,0,.82-3.27ZM876.58,426.5a8.57,8.57,0,0,1,.29-2L886,396l36.55,7.35-2.61,29.78a6.56,6.56,0,0,1-.51,2L918,438.49l-41.43-8.33Zm15.11-49.09a21.46,21.46,0,0,1,.3-7.06l1.78-8.85,34.65,7-1.77,8.79a21.42,21.42,0,0,1-2.51,6.61l-3.22,5.62-28.43-5.72Z"/><circle class="cls-4" cx="897.53" cy="382.54" r="1.1"/><circle class="cls-4" cx="895.37" cy="382.11" r="1.1"/><circle class="cls-4" cx="899.7" cy="382.98" r="1.1"/><circle class="cls-4" cx="904.03" cy="383.85" r="1.1"/><circle class="cls-4" cx="901.86" cy="383.42" r="1.1"/><circle class="cls-4" cx="906.2" cy="384.29" r="1.1"/><circle class="cls-4" cx="910.53" cy="385.16" r="1.1"/><circle class="cls-4" cx="908.36" cy="384.72" r="1.1"/><circle class="cls-4" cx="912.69" cy="385.59" r="1.1"/><circle class="cls-4" cx="917.03" cy="386.47" r="1.1"/><circle class="cls-4" cx="914.86" cy="386.03" r="1.1"/><circle class="cls-4" cx="919.19" cy="386.9" r="1.1"/><circle class="cls-4" cx="899.05" cy="380.6" r="1.1"/><circle class="cls-4" cx="896.89" cy="380.16" r="1.1"/><circle class="cls-4" cx="894.72" cy="379.73" r="1.1"/><circle class="cls-4" cx="901.22" cy="381.03" r="1.1"/><circle class="cls-4" cx="905.55" cy="381.9" r="1.1"/><circle class="cls-4" cx="903.38" cy="381.47" r="1.1"/><circle class="cls-4" cx="907.72" cy="382.34" r="1.1"/><circle class="cls-4" cx="912.05" cy="383.21" r="1.1"/><circle class="cls-4" cx="909.88" cy="382.78" r="1.1"/><circle class="cls-4" cx="914.21" cy="383.65" r="1.1"/><circle class="cls-4" cx="918.55" cy="384.52" r="1.1"/><circle class="cls-4" cx="916.38" cy="384.08" r="1.1"/><circle class="cls-4" cx="920.71" cy="384.95" r="1.1"/><circle class="cls-4" cx="900.57" cy="378.65" r="1.1"/><circle class="cls-4" cx="898.4" cy="378.21" r="1.1"/><circle class="cls-4" cx="896.24" cy="377.78" r="1.1"/><circle class="cls-4" cx="894.07" cy="377.34" r="1.1"/><circle class="cls-4" cx="902.74" cy="379.08" r="1.1"/><circle class="cls-4" cx="907.07" cy="379.96" r="1.1"/><circle class="cls-4" cx="904.9" cy="379.52" r="1.1"/><circle class="cls-4" cx="909.23" cy="380.39" r="1.1"/><circle class="cls-4" cx="913.57" cy="381.26" r="1.1"/><circle class="cls-4" cx="911.4" cy="380.83" r="1.1"/><circle class="cls-4" cx="915.73" cy="381.7" r="1.1"/><circle class="cls-4" cx="920.06" cy="382.57" r="1.1"/><circle class="cls-4" cx="917.9" cy="382.13" r="1.1"/><circle class="cls-4" cx="922.23" cy="383.01" r="1.1"/><circle class="cls-4" cx="902.09" cy="376.7" r="1.1"/><circle class="cls-4" cx="899.92" cy="376.26" r="1.1"/><circle class="cls-4" cx="897.76" cy="375.83" r="1.1"/><circle class="cls-4" cx="895.59" cy="375.39" r="1.1"/><circle class="cls-4" cx="893.43" cy="374.96" r="1.1"/><circle class="cls-4" cx="904.26" cy="377.14" r="1.1"/><circle class="cls-4" cx="908.59" cy="378.01" r="1.1"/><circle class="cls-4" cx="906.42" cy="377.57" r="1.1"/><circle class="cls-4" cx="910.75" cy="378.44" r="1.1"/><circle class="cls-4" cx="915.08" cy="379.32" r="1.1"/><circle class="cls-4" cx="912.92" cy="378.88" r="1.1"/><circle class="cls-4" cx="917.25" cy="379.75" r="1.1"/><circle class="cls-4" cx="921.58" cy="380.62" r="1.1"/><circle class="cls-4" cx="919.42" cy="380.19" r="1.1"/><circle class="cls-4" cx="923.75" cy="381.06" r="1.1"/></g><g class="cls-2"><path class="cls-3" d="M1040.83,621.39,967.2,623.8a1,1,0,0,0-.93,1l.4,12.31a.94.94,0,0,0,1,.89l3-.1,7.57,76a1,1,0,0,0,1,.83l3.73-.12.15,4.55a1,1,0,0,0,1,.89l46.18-1.51a1,1,0,0,0,.93-1l-.15-4.55,3.77-.13a.94.94,0,0,0,.93-.9l2.59-76.3,3-.1a1,1,0,0,0,.93-1l-.4-12.3A1,1,0,0,0,1040.83,621.39Zm-6.12,65.77L977.64,689l-4-39.55,62.39-2Zm-5.49,29.47L985,718.07l-.12-3.77,44.18-1.45.12,3.78Zm4.61-5.63-3.81.12h0l-46.07,1.51h0l-3.8.13-2.19-21.85,56.66-1.85Zm2.23-65.26-62.47,2-1-10,63.83-2.09Zm4.23-12-2.94.1-65.81,2.15-2.94.1-.34-10.38,71.67-2.35.34,10.38Z"/><path class="cls-3" d="M1005,651.55c-9.62.32-17.19,8.09-16.89,17.33s8.37,16.51,18,16.19,17.19-8.08,16.88-17.33S1014.6,651.24,1005,651.55Zm1,31.66c-8.54.27-15.73-6.18-16-14.41s6.46-15.14,15-15.42,15.73,6.18,16,14.41S1014.56,682.93,1006,683.21Z"/></g><path class="cls-5" d="M585.35,448.28a14.33,14.33,0,0,1,0,20.23,1.21,1.21,0,0,0,0,1.71,1.18,1.18,0,0,0,.87.35,1.25,1.25,0,0,0,.87-.35,16.74,16.74,0,0,0,0-23.68l-.1-.1a14.32,14.32,0,0,1,0-20.22,1.21,1.21,0,0,0-1.71-1.71,16.73,16.73,0,0,0,0,23.67Z"/><path class="cls-6" d="M642.61,549.06H542.1a1.26,1.26,0,0,0-1.24,1,1.24,1.24,0,0,0,1.19,1.52h100.5a1.26,1.26,0,0,0,1.25-1A1.24,1.24,0,0,0,642.61,549.06Z"/><path class="cls-5" d="M642.31,477.18H556.72a1.22,1.22,0,0,0-1.22,1.22v34.27A32.48,32.48,0,0,0,588,545.08h8.67a32.49,32.49,0,0,0,32.48-32.41v-8.13h13.2A11.69,11.69,0,0,0,654,492.86v-4A11.7,11.7,0,0,0,642.31,477.18ZM596.64,542.6H588a30,30,0,0,1-30-30V479.42h68.65V512.6A30,30,0,0,1,596.64,542.6Zm54.87-49.75a9.21,9.21,0,0,1-9.2,9.2H629.13V479.67h13.18a9.21,9.21,0,0,1,9.2,9.2Z"/><path class="cls-5" d="M596.1,448.28a14.3,14.3,0,0,1,0,20.25,1.21,1.21,0,0,0,0,1.72,1.18,1.18,0,0,0,.87.34,1.31,1.31,0,0,0,.87-.34,16.75,16.75,0,0,0,0-23.68l-.1-.1a14.32,14.32,0,0,1,0-20.22,1.22,1.22,0,0,0-1.72-1.72,16.74,16.74,0,0,0,0,23.68Z"/></g></g></svg>