<svg xmlns="http://www.w3.org/2000/svg" viewBox="0 0 40 40"><defs><style>.cls-1{fill:#fff;}</style></defs><title>twitter</title><g id="Layer_2" data-name="Layer 2"><g id="Layer_1-2" data-name="Layer 1"><g id="Page-1"><g id="Twitter"><path id="Oval-1" class="cls-1" d="M28.21,14.42c-1.09.4-1.24.35-.7-.25a4,4,0,0,0,.86-1.44s-.19,0-.41.15a6.85,6.85,0,0,1-1.11.45l-.69.23-.62-.44a5.2,5.2,0,0,0-1.09-.59,4.17,4.17,0,0,0-2.22.05,3.86,3.86,0,0,0-2.49,3.6.28.28,0,0,1,0-.09,1.08,1.08,0,0,0,0,.16,1.34,1.34,0,0,0,0,.2l0,.65L19.15,17a10.1,10.1,0,0,1-6-3.11L12.26,13l-.22.64a4,4,0,0,0,.79,4c.51.57.4.65-.48.31-.31-.1-.57-.18-.6-.14a5,5,0,0,0,.46,1.79A4.18,4.18,0,0,0,14,21.33l.62.31h-.73c-.72,0-.74,0-.67.3a3.93,3.93,0,0,0,2.38,2.2l.79.28-.69.43a6.79,6.79,0,0,1-3.4,1A3.88,3.88,0,0,0,11.2,26a9.41,9.41,0,0,0,2.46,1.18,10.33,10.33,0,0,0,8.34-1,11.52,11.52,0,0,0,4.23-5.21,14.13,14.13,0,0,0,.87-4c0-.62,0-.7.75-1.44a9.5,9.5,0,0,0,.89-1C28.87,14.19,28.85,14.19,28.21,14.42Zm0,0c-1.09.4-1.24.35-.7-.25a4,4,0,0,0,.86-1.44s-.19,0-.41.15a6.85,6.85,0,0,1-1.11.45l-.69.23-.62-.44a5.2,5.2,0,0,0-1.09-.59,4.17,4.17,0,0,0-2.22.05,3.86,3.86,0,0,0-2.49,3.6.28.28,0,0,1,0-.09,1.08,1.08,0,0,0,0,.16,1.34,1.34,0,0,0,0,.2l0,.65L19.15,17a10.1,10.1,0,0,1-6-3.11L12.26,13l-.22.64a4,4,0,0,0,.79,4c.51.57.4.65-.48.31-.31-.1-.57-.18-.6-.14a5,5,0,0,0,.46,1.79A4.18,4.18,0,0,0,14,21.33l.62.31h-.73c-.72,0-.74,0-.67.3a3.93,3.93,0,0,0,2.38,2.2l.79.28-.69.43a6.79,6.79,0,0,1-3.4,1A3.88,3.88,0,0,0,11.2,26a9.41,9.41,0,0,0,2.46,1.18,10.33,10.33,0,0,0,8.34-1,11.52,11.52,0,0,0,4.23-5.21,14.13,14.13,0,0,0,.87-4c0-.62,0-.7.75-1.44a9.5,9.5,0,0,0,.89-1C28.87,14.19,28.85,14.19,28.21,14.42Zm0,0c-1.09.4-1.24.35-.7-.25a4,4,0,0,0,.86-1.44s-.19,0-.41.15a6.85,6.85,0,0,1-1.11.45l-.69.23-.62-.44a5.2,5.2,0,0,0-1.09-.59,4.17,4.17,0,0,0-2.22.05,3.86,3.86,0,0,0-2.49,3.6.28.28,0,0,1,0-.09,1.08,1.08,0,0,0,0,.16,1.34,1.34,0,0,0,0,.2l0,.65L19.15,17a10.1,10.1,0,0,1-6-3.11L12.26,13l-.22.64a4,4,0,0,0,.79,4c.51.57.4.65-.48.31-.31-.1-.57-.18-.6-.14a5,5,0,0,0,.46,1.79A4.18,4.18,0,0,0,14,21.33l.62.31h-.73c-.72,0-.74,0-.67.3a3.93,3.93,0,0,0,2.38,2.2l.79.28-.69.43a6.79,6.79,0,0,1-3.4,1A3.88,3.88,0,0,0,11.2,26a9.41,9.41,0,0,0,2.46,1.18,10.33,10.33,0,0,0,8.34-1,11.52,11.52,0,0,0,4.23-5.21,14.13,14.13,0,0,0,.87-4c0-.62,0-.7.75-1.44a9.5,9.5,0,0,0,.89-1C28.87,14.19,28.85,14.19,28.21,14.42ZM20,0A20,20,0,1,0,40,20,20,20,0,0,0,20,0Zm0,37.6A17.6,17.6,0,1,1,37.6,20,17.6,17.6,0,0,1,20,37.6Z"/></g></g></g></g></svg>