<svg xmlns="http://www.w3.org/2000/svg" viewBox="0 0 500 319"><defs><style>.cls-1{fill: rgb(230, 215, 207);}</style></defs><title>bg</title><g id="Layer_2" data-name="Layer 2"><g id="Layer_1-2" data-name="Layer 1"><path class="cls-1" d="M262.23,100.33h2.19a5.19,5.19,0,0,0,5.35-4.93,4.35,4.35,0,0,0-1.62-3.34c-1.08-.89-3.38-1.38-5.26-1.38h-4.41v9.62h3.75Z"/><path class="cls-1" d="M358.85,93.67a11.57,11.57,0,0,0-15.91,0,9.84,9.84,0,0,0,0,15.26,11.66,11.66,0,0,0,15.92,0,9.78,9.78,0,0,0,0-15.26Z"/><path class="cls-1" d="M222.64,165.35v13.23h1.48a6.62,6.62,0,0,0,0-13.23Z"/><path class="cls-1" d="M341.85,165.35h-3.3V172l3.3,0a3.33,3.33,0,1,0,0-6.66Z"/><path class="cls-1" d="M319.63,165.25a6.4,6.4,0,0,0-4.74,2,6.54,6.54,0,0,0-2,4.75,6.7,6.7,0,1,0,6.71-6.72Z"/><path class="cls-1" d="M73.71,165.35H72.27v13.23h1.48a6.62,6.62,0,0,0,0-13.23Z"/><path class="cls-1" d="M0,0V319H500V0ZM300.88,80.65H311V112h18.42v10H300.88Zm6.44,97.95V183H294V161h4.43V178.6ZM285.65,80.65h10.1V122h-10.1Zm2.85,89.12v4.41h-6.64v4.45h8.86V183H277.43V160.91h13.29v4.41h-8.86v4.45Zm-25-89.12a24.82,24.82,0,0,1,7.19,1A14.82,14.82,0,0,1,276,84.93c2.61,2.51,4.27,5,4.27,9.61v1a13.41,13.41,0,0,1-2.78,8.05,10,10,0,0,1-4.36,3.55L283.08,122H270.79L258.5,105.84V122H248.4l0-41.35ZM274.12,161l-10,22.53L254.2,161h4.69L264.12,173,269.37,161Zm-24.63,8.81v4.41h-6.65v4.45h8.86V183H238.41V160.91H251.7v4.41h-8.86v4.45ZM233.13,80.65h10.11V122H233.13Zm2,91.35a10.51,10.51,0,0,1-2.95,7.77,11,11,0,0,1-8.06,3.23h-5.86V161h5.86a11.24,11.24,0,0,1,8.06,3.24A10.61,10.61,0,0,1,235.1,172ZM194.67,80.65h10.08V96.5l11-15.85H227.4L214.24,101.6l15.3,20.4h-12.3l-12.49-15.37V122H194.67ZM186.58,173a20.52,20.52,0,0,1,2-2.17,4.52,4.52,0,0,1,.36-.3,8.62,8.62,0,0,1-1.42-4.06,5.08,5.08,0,0,1,1.68-3.78,7.47,7.47,0,0,1,4.57-2,6.35,6.35,0,0,1,6.13,5l-4.41.93a1.77,1.77,0,0,0-1.72-1.4,1.53,1.53,0,0,0-1.71,1.32,2.87,2.87,0,0,0,.47,1.38,11.81,11.81,0,0,0,1.64,2.67,38.06,38.06,0,0,0,2.89,3.18,16.82,16.82,0,0,0,1.21,1.21,19,19,0,0,0,.22-3l4.14-.05a14.48,14.48,0,0,1-.92,5.7A6.39,6.39,0,0,0,204.9,179v4.1a9.6,9.6,0,0,1-5.06-1.73,3.77,3.77,0,0,1-.66-.49,6.06,6.06,0,0,1-3.42,2,11.23,11.23,0,0,1-2.81.4,7.17,7.17,0,0,1-5.21-2.08,6.7,6.7,0,0,1-2.12-5A5.12,5.12,0,0,1,186.58,173ZM131.93,80.65H142V112h18.42v10H131.93Zm-66.3,41.79a17.63,17.63,0,0,1-10.28-3l-.68-.47L59.83,110l.82.69a7.75,7.75,0,0,0,5,1.64h.2c4.22,0,8.18-3,8.18-7V97.43l-.18-16.78,10.57,0,.16,16.84v8.14a15.83,15.83,0,0,1-5.17,11.91A20.42,20.42,0,0,1,66,122.44Zm16.14,57.33a11,11,0,0,1-8,3.23H67.86V161h5.86a11.23,11.23,0,0,1,8,3.24,11.72,11.72,0,0,1,0,15.57Zm19.56-14.45H92.47v4.45h6.65v4.41H92.47v4.45h8.86V183H88V160.91h13.29Zm9.49,17.85a7.08,7.08,0,0,1-7-5.79l4.4-.93a2.54,2.54,0,0,0,2.58,2.23l0,0a2.56,2.56,0,0,0,2.57-2.24c0-2-2.7-2.29-4.22-2.82-2.69-.91-5.06-3.12-5.06-6.12a6.72,6.72,0,0,1,13.38-.93l-4.4.93a2.24,2.24,0,0,0-4.47,0c0,2,2.51,2.51,4,3,2.78.8,5.24,2.92,5.24,6A7,7,0,0,1,110.82,183.17Zm14.79-.17h-4.43V161h4.43Zm1.18-77.49a16,16,0,0,1-5.16,11.95c-3.44,3.27-7.94,4.92-13.33,4.92s-10-1.65-13.38-4.92a16,16,0,0,1-5.17-11.95V80.65H99.91v24.51a6.29,6.29,0,0,0,2.46,5,8.86,8.86,0,0,0,5.9,2.06c4.19,0,8.36-3,8.36-7V80.65h10.16ZM148,179.9a10.82,10.82,0,0,1-7.91,3.26A11.16,11.16,0,0,1,128.92,172a10.85,10.85,0,0,1,3.28-7.91,10.67,10.67,0,0,1,7.89-3.3l0,0a11.24,11.24,0,0,1,7.91,3.27l-3.16,3.16a6.51,6.51,0,0,0-4.73-2,6.72,6.72,0,0,0,0,13.44,6.69,6.69,0,0,0,6.05-3.86h-6.29v-4.22h11.32A11.25,11.25,0,0,1,148,179.9Zm24.28,3.55L159,170.79V183h-4.43V160.5l13.28,12.64V160.91h4.44ZM174.15,122h-10.1V80.65h10.1ZM325,227H175v-2H325Zm2.53-47.1a11.13,11.13,0,1,1,3.3-7.91A10.79,10.79,0,0,1,327.53,179.9Zm19.79-5.77a7.51,7.51,0,0,1-5.47,2.25h-3.3V183h-4.43V161h7.73a7.77,7.77,0,0,1,7.76,7.73A7.27,7.27,0,0,1,347.32,174.13Zm-12-57.95a20.35,20.35,0,0,1,0-29.68,22.74,22.74,0,0,1,31.17,0,20.29,20.29,0,0,1,0,29.68,22.93,22.93,0,0,1-31.15,0ZM374.51,183h-4.43v-9.13l-6.36,8.77-6.37-8.77V183h-4.43V160.44l10.8,14.81,10.79-14.81Zm17.42-17.68h-8.86v4.45h6.65v4.41h-6.65v4.45h8.86V183H378.64V160.91h13.29ZM391.08,122,371.24,80.65H382L392.14,102l10.16-21.3h10.87L393.24,122ZM413,183.45l-13.28-12.66V183h-4.43V160.5l13.27,12.64V160.91H413Zm18.6-18.1h-5.41V183h-4.44V165.35h-5.43V161h15.28ZM434.08,122,431,115.72H416.77L413.7,122H402.76L422.7,80.7h2.39l20,41.3Z"/><path class="cls-1" d="M193,178.88a4.75,4.75,0,0,0,2.81-1c-.26-.22-.87-.77-1.83-1.64a12.26,12.26,0,0,1-2.37-2.83,11.08,11.08,0,0,0-1.19,1,2.23,2.23,0,0,0-.55,1.74,3.11,3.11,0,0,0,1,2A3.08,3.08,0,0,0,193,178.88Z"/><polygon class="cls-1" points="421.23 107.48 426.56 107.48 423.91 101.89 421.23 107.48"/></g></g></svg>